<svg width="14" height="14" viewBox="0 0 14 14" fill="none" xmlns="http://www.w3.org/2000/svg">
<g clip-path="url(#clip0_987_2898)">
<path fill-rule="evenodd" clip-rule="evenodd" d="M4.32501 11.9471C4.32501 11.3304 4.82496 10.8304 5.44168 10.8304C6.0584 10.8304 6.55835 11.3304 6.55835 11.9471C6.55835 12.5638 6.0584 13.0638 5.44168 13.0638C4.82496 13.0638 4.32501 12.5638 4.32501 11.9471Z" fill="white"/>
<path fill-rule="evenodd" clip-rule="evenodd" d="M10.4666 11.9471C10.4666 11.3304 10.9665 10.8304 11.5833 10.8304C12.2 10.8304 12.6999 11.3304 12.6999 11.9471C12.6999 12.5638 12.2 13.0638 11.5833 13.0638C10.9665 13.0638 10.4666 12.5638 10.4666 11.9471Z" fill="white"/>
<path fill-rule="evenodd" clip-rule="evenodd" d="M0.416656 0.780501C0.416656 0.472142 0.666631 0.222168 0.97499 0.222168H3.20832C3.47444 0.222168 3.70357 0.409983 3.7558 0.670925L4.22473 3.01383H13.2583C13.4247 3.01383 13.5824 3.08805 13.6885 3.21626C13.7946 3.34447 13.8379 3.51331 13.8068 3.67676L12.9126 8.36536C12.8361 8.75094 12.6263 9.0973 12.3201 9.34381C12.0154 9.58909 11.6345 9.71996 11.2435 9.71384H5.82615C5.43517 9.71996 5.05429 9.58909 4.74959 9.34381C4.4435 9.0974 4.23378 8.75122 4.15712 8.36583C4.15708 8.36567 4.15715 8.36599 4.15712 8.36583L3.2244 3.70572C3.22061 3.69031 3.21747 3.67464 3.215 3.65875L2.75067 1.33883H0.97499C0.666631 1.33883 0.416656 1.08886 0.416656 0.780501ZM4.44823 4.1305L5.25229 8.14781C5.27782 8.27634 5.34774 8.39179 5.44982 8.47396C5.55189 8.55613 5.67961 8.59978 5.81063 8.59727L5.82132 8.59717H11.2483L11.259 8.59727C11.39 8.59978 11.5178 8.55613 11.6198 8.47396C11.7214 8.39218 11.7912 8.27742 11.817 8.14961L12.5835 4.1305H4.44823Z" fill="white"/>
</g>
<defs>
<clipPath id="clip0_987_2898">
<rect width="13.4" height="13.4" fill="white" transform="translate(0.416656 0.222168)"/>
</clipPath>
</defs>
</svg>
