<svg width="15" height="14" viewBox="0 0 15 14" fill="none" xmlns="http://www.w3.org/2000/svg">
<g clip-path="url(#clip0_632_1024)">
<path fill-rule="evenodd" clip-rule="evenodd" d="M4.75842 11.9471C4.75842 11.3304 5.25837 10.8304 5.87509 10.8304C6.49181 10.8304 6.99176 11.3304 6.99176 11.9471C6.99176 12.5638 6.49181 13.0638 5.87509 13.0638C5.25837 13.0638 4.75842 12.5638 4.75842 11.9471Z" fill="#3BB77E"/>
<path fill-rule="evenodd" clip-rule="evenodd" d="M10.9 11.9471C10.9 11.3304 11.4 10.8304 12.0167 10.8304C12.6334 10.8304 13.1334 11.3304 13.1334 11.9471C13.1334 12.5638 12.6334 13.0638 12.0167 13.0638C11.4 13.0638 10.9 12.5638 10.9 11.9471Z" fill="#3BB77E"/>
<path fill-rule="evenodd" clip-rule="evenodd" d="M0.850037 0.780501C0.850037 0.472142 1.10001 0.222168 1.40837 0.222168H3.6417C3.90782 0.222168 4.13695 0.409983 4.18918 0.670925L4.65811 3.01383H13.6917C13.8581 3.01383 14.0158 3.08805 14.1219 3.21626C14.228 3.34447 14.2713 3.51331 14.2402 3.67676L13.346 8.36536C13.2694 8.75094 13.0597 9.0973 12.7534 9.34381C12.4487 9.58909 12.0679 9.71996 11.6769 9.71384H6.25953C5.86855 9.71996 5.48767 9.58909 5.18297 9.34381C4.87688 9.0974 4.66716 8.75122 4.5905 8.36583C4.59046 8.36567 4.59053 8.36599 4.5905 8.36583L3.65778 3.70572C3.65399 3.69031 3.65085 3.67464 3.64838 3.65875L3.18405 1.33883H1.40837C1.10001 1.33883 0.850037 1.08886 0.850037 0.780501ZM4.88161 4.1305L5.68567 8.14781C5.7112 8.27634 5.78112 8.39179 5.8832 8.47396C5.98527 8.55613 6.11299 8.59978 6.24401 8.59727L6.2547 8.59717H11.6817L11.6924 8.59727C11.8234 8.59978 11.9511 8.55613 12.0532 8.47396C12.1548 8.39218 12.2246 8.27741 12.2504 8.14961L13.0168 4.1305H4.88161Z" fill="#3BB77E"/>
</g>
<defs>
<clipPath id="clip0_632_1024">
<rect width="13.4" height="13.4" fill="white" transform="translate(0.850037 0.222168)"/>
</clipPath>
</defs>
</svg>
