<svg width="1040" height="484" viewBox="0 0 1040 484" fill="none" xmlns="http://www.w3.org/2000/svg">
<mask id="mask0_2019_722" style="mask-type:alpha" maskUnits="userSpaceOnUse" x="237" y="297" width="570" height="187">
<path fill-rule="evenodd" clip-rule="evenodd" d="M330 483.617C354.797 483.617 377.327 473.912 394 458.093C410.673 473.912 433.203 483.617 458 483.617C482.797 483.617 505.327 473.912 522 458.093C538.673 473.912 561.203 483.617 586 483.617C610.797 483.617 633.327 473.912 650 458.093C666.673 473.912 689.203 483.617 714 483.617C765.362 483.617 807 441.98 807 390.617C807 366.095 797.509 343.79 782 327.174V305H750.375C739.202 300.247 726.908 297.617 714 297.617C701.092 297.617 688.798 300.247 677.625 305H622.375C611.202 300.247 598.908 297.617 586 297.617C573.092 297.617 560.798 300.247 549.625 305H494.375C483.202 300.247 470.908 297.617 458 297.617C445.092 297.617 432.798 300.247 421.625 305H366.375C355.202 300.247 342.908 297.617 330 297.617C317.092 297.617 304.798 300.247 293.625 305H270V319.558C249.817 336.618 237 362.121 237 390.617C237 441.98 278.638 483.617 330 483.617Z" fill="#FFCB44"/>
</mask>
<g mask="url(#mask0_2019_722)">
<rect x="131" y="260" width="720" height="224" fill="#FFCB44"/>
</g>
<path fill-rule="evenodd" clip-rule="evenodd" d="M266 160.476C249.327 176.295 226.797 186 202 186C196.541 186 191.191 185.53 185.99 184.627C185.997 185.084 186 185.542 186 186C186 207.026 179.022 226.423 167.256 242C179.022 257.577 186 276.974 186 298C186 298.458 185.997 298.916 185.99 299.373C191.191 298.47 196.541 298 202 298C253.362 298 295 339.638 295 391C295 442.362 253.362 484 202 484C181.644 484 162.815 477.46 147.5 466.366C132.185 477.46 113.356 484 93 484C41.6375 484 0 442.362 0 391C0 374.061 4.52883 358.179 12.4417 344.5C4.52883 330.821 0 314.939 0 298C0 276.974 6.97771 257.577 18.7438 242C6.97771 226.423 0 207.026 0 186C0 169.061 4.52883 153.179 12.4417 139.5C4.52883 125.821 0 109.939 0 93C0 41.6375 41.6375 0 93 0C113.356 0 132.185 6.5403 147.5 17.6342C162.815 6.5403 181.644 0 202 0C226.797 0 249.327 9.70496 266 25.5238C282.673 9.70496 305.203 0 330 0C354.797 0 377.327 9.70496 394 25.5238C410.673 9.70496 433.203 0 458 0C482.797 0 505.327 9.70496 522 25.5238C538.673 9.70496 561.203 0 586 0C610.797 0 633.327 9.70496 650 25.5238C666.673 9.70496 689.203 0 714 0C738.797 0 761.327 9.70496 778 25.5238C794.673 9.70496 817.203 0 842 0C861.479 0 879.559 5.98857 894.5 16.225C909.441 5.98857 927.521 0 947 0C998.362 0 1040 41.6375 1040 93C1040 109.939 1035.47 125.821 1027.56 139.5C1035.47 153.179 1040 169.061 1040 186C1040 207.026 1033.02 226.423 1021.26 242C1033.02 257.577 1040 276.974 1040 298C1040 314.939 1035.47 330.821 1027.56 344.5C1035.47 358.179 1040 374.061 1040 391C1040 442.362 998.362 484 947 484C927.521 484 909.441 478.011 894.5 467.775C879.559 478.011 861.479 484 842 484C790.638 484 749 442.362 749 391C749 339.638 790.638 298 842 298C846.067 298 850.074 298.261 854.003 298.767L854.002 298.596L854.001 298.46C854 298.307 854 298.154 854 298C854 276.974 860.978 257.577 872.744 242C860.978 226.423 854 207.026 854 186C854 185.744 854.001 185.488 854.003 185.233C850.074 185.739 846.067 186 842 186C817.203 186 794.673 176.295 778 160.476C761.327 176.295 738.797 186 714 186C689.203 186 666.673 176.295 650 160.476C633.327 176.295 610.797 186 586 186C561.203 186 538.673 176.295 522 160.476C505.327 176.295 482.797 186 458 186C433.203 186 410.673 176.295 394 160.476C377.327 176.295 354.797 186 330 186C305.203 186 282.673 176.295 266 160.476Z" fill="#FFCB44"/>
<rect x="135" y="124" width="761" height="220" fill="#FFCB44"/>
</svg>
