<svg width="16px" height="16px" viewBox="0 0 0.48 0.48" xmlns="http://www.w3.org/2000/svg" fill="none"><path fill="#073f38" fill-rule="evenodd" d="M0.22 0.04a0.06 0.06 0 0 0 -0.06 0.06v0.28a0.06 0.06 0 0 0 0.06 0.06h0.12a0.06 0.06 0 0 0 0.06 -0.06V0.1a0.06 0.06 0 0 0 -0.06 -0.06zm0.026 0.126a0.02 0.02 0 0 1 0.028 0l0.06 0.06a0.02 0.02 0 0 1 0 0.028l-0.06 0.06a0.02 0.02 0 0 1 -0.028 -0.028L0.272 0.26H0.1a0.02 0.02 0 1 1 0 -0.04h0.172l-0.026 -0.026a0.02 0.02 0 0 1 0 -0.028" clip-rule="evenodd"/></svg>