<svg width="16px" height="16px" viewBox="0 0 0.48 0.48" xmlns="http://www.w3.org/2000/svg" fill="none"><path fill="#d51313" fill-rule="evenodd" d="M0.12 0.04a0.06 0.06 0 0 0 -0.06 0.06v0.28a0.06 0.06 0 0 0 0.06 0.06h0.12a0.06 0.06 0 0 0 0.06 -0.06V0.1a0.06 0.06 0 0 0 -0.06 -0.06zm0.206 0.106a0.02 0.02 0 0 1 0.028 0l0.08 0.08a0.02 0.02 0 0 1 0 0.028l-0.08 0.08a0.02 0.02 0 0 1 -0.028 -0.028L0.372 0.26H0.2a0.02 0.02 0 1 1 0 -0.04h0.172l-0.046 -0.046a0.02 0.02 0 0 1 0 -0.028" clip-rule="evenodd"/></svg>