<svg width="151" height="32" viewBox="0 0 151 32" fill="none" xmlns="http://www.w3.org/2000/svg">
<path d="M11.42 8.29C11.3253 8.06764 11.1682 7.8775 10.9676 7.74261C10.7671 7.60772 10.5317 7.53387 10.29 7.53H6.29003C6.18496 7.52404 6.08002 7.54367 5.98422 7.58722C5.88842 7.63076 5.80462 7.69692 5.74003 7.78C5.68657 7.87457 5.65848 7.98136 5.65848 8.09C5.65848 8.19864 5.68657 8.30543 5.74003 8.4L8.47003 13.13L4.17003 20.72C4.11358 20.8135 4.08374 20.9207 4.08374 21.03C4.08374 21.1393 4.11358 21.2465 4.17003 21.34C4.22368 21.429 4.30025 21.5019 4.39172 21.5511C4.48319 21.6004 4.58622 21.6242 4.69003 21.62H8.69003C8.92975 21.6125 9.16194 21.5345 9.35759 21.3958C9.55323 21.2571 9.70365 21.0637 9.79003 20.84L14.15 13.13L11.42 8.29ZM27.83 2.88C27.8817 2.78483 27.9087 2.67827 27.9087 2.57C27.9087 2.46173 27.8817 2.35517 27.83 2.26C27.7709 2.17535 27.6913 2.10709 27.5986 2.06162C27.5059 2.01614 27.4032 1.99494 27.3 2H23.22C22.9839 2.00667 22.7551 2.08345 22.5628 2.22058C22.3705 2.3577 22.2233 2.54896 22.14 2.77C22.14 2.77 13.44 18.2 13.14 18.7L18.88 29.23C18.9736 29.452 19.1288 29.6425 19.3273 29.779C19.5258 29.9154 19.7593 29.9921 20 30H24C24.1051 30.0088 24.2105 29.9894 24.3055 29.9437C24.4005 29.8979 24.4814 29.8276 24.54 29.74C24.5944 29.6457 24.6231 29.5388 24.6231 29.43C24.6231 29.3212 24.5944 29.2143 24.54 29.12L18.85 18.72L27.83 2.88Z" fill="#044F48"/>
<path d="M35.16 22.5H32.04L36.98 9.1H41.34L46.28 22.5H43.02L41.94 19.52H36.26L35.16 22.5ZM38 14.76L37.24 16.84H40.96L40.2 14.76L39.22 11.74H39.02L38 14.76ZM50.8072 22.5H47.8072V14.92H46.3472V12.44H47.8272C48.0072 10.32 49.4272 9.06 52.1072 9.06C52.4272 9.06 52.7272 9.06 53.0472 9.1V11.34H51.8072C51.0472 11.34 50.6872 11.58 50.6872 12.26V12.44H53.0472V14.92H50.8072V22.5ZM57.4812 22.5H54.5012V12.44H57.2812V14.06H57.4012C57.9012 13.04 58.8012 12.24 60.2212 12.24C62.3212 12.24 63.1012 13.8 63.1012 15.82V16.74H60.1212V16.2C60.1212 15.12 59.7812 14.78 58.8412 14.78C57.9212 14.78 57.4812 15.1 57.4812 16.2V22.5ZM67.3892 11.3H64.4492L64.4092 9.1H67.3892V11.3ZM67.4492 22.5H64.4492V12.44H67.4492V22.5ZM72.5 22.5H69.52V12.44H72.3V14.2H72.42C72.96 13.06 74 12.24 75.72 12.24C77.44 12.24 78.48 13.02 78.98 14.2H79.08C79.64 13.1 80.64 12.24 82.5 12.24C85.1 12.24 86.16 13.98 86.16 16.12V22.5H83.16V16.72C83.16 15.32 82.74 14.82 81.28 14.82C79.92 14.82 79.34 15.26 79.34 16.72V22.5H76.34V16.72C76.34 15.32 75.9 14.82 74.46 14.82C73.1 14.82 72.5 15.26 72.5 16.68V22.5ZM92.9594 22.7C89.4994 22.7 87.9194 20.68 87.9194 17.5C87.9194 14.28 89.8394 12.24 92.9794 12.24C95.9994 12.24 97.7794 14.04 97.7794 16.66C97.7794 17.22 97.6994 17.8 97.6394 18.14H90.7394C90.7994 19.54 91.3594 20.1 92.9994 20.1C94.1994 20.1 94.7194 19.84 94.7194 19.22V19.1H97.6794V19.3C97.6794 21.44 95.8394 22.7 92.9594 22.7ZM92.8794 14.7C91.4394 14.7 90.8794 15.26 90.7594 16.32H94.8994C94.9594 15.28 94.2794 14.7 92.8794 14.7ZM102.597 22.5H99.6169V12.44H102.397V14.06H102.517C103.017 13.04 103.917 12.24 105.337 12.24C107.437 12.24 108.217 13.8 108.217 15.82V16.74H105.237V16.2C105.237 15.12 104.897 14.78 103.957 14.78C103.037 14.78 102.597 15.1 102.597 16.2V22.5ZM114.542 22.7C111.222 22.7 109.442 20.68 109.442 17.5C109.442 14.28 111.342 12.24 114.702 12.24C117.382 12.24 119.342 13.88 119.342 16.36V16.6H116.342V16.44C116.342 15.3 115.702 14.92 114.462 14.92C113.022 14.92 112.402 15.6 112.402 17.48C112.402 19.34 113.022 20.02 114.462 20.02C115.702 20.02 116.342 19.64 116.342 18.5V18.34H119.342V18.58C119.342 21.06 117.322 22.7 114.542 22.7ZM123.959 22.7C122.179 22.7 120.799 21.76 120.799 19.94C120.799 18.38 121.919 17.42 123.999 17.1L127.439 16.58V16.26C127.439 15.08 126.799 14.86 125.619 14.86C124.399 14.86 123.919 15.2 123.919 16.22V16.44H121.059V16.22C121.059 13.82 122.919 12.24 125.759 12.24C128.719 12.24 130.279 13.86 130.279 16.54V22.5H127.499V21.14H127.379C126.839 21.88 125.819 22.7 123.959 22.7ZM123.659 19.7C123.659 20.24 124.079 20.42 124.959 20.42C126.179 20.42 127.439 20.1 127.439 18.54L124.559 18.98C123.939 19.08 123.659 19.28 123.659 19.7ZM137.019 22.54C134.399 22.54 133.139 21.58 133.139 19.2V14.92H131.539V12.44H133.219L133.779 10.1H136.139V12.44H138.979V14.92H136.139V18.86C136.139 19.74 136.439 19.84 137.739 19.84H138.979V22.34C138.499 22.44 137.719 22.54 137.019 22.54ZM145.294 22.7C142.054 22.7 140.134 20.66 140.134 17.48C140.134 14.28 142.054 12.24 145.294 12.24C148.514 12.24 150.394 14.28 150.394 17.48C150.394 20.66 148.514 22.7 145.294 22.7ZM145.294 20.06C146.914 20.06 147.474 19.42 147.474 17.48C147.474 15.52 146.914 14.88 145.294 14.88C143.654 14.88 143.094 15.52 143.094 17.48C143.094 19.42 143.654 20.06 145.294 20.06Z" fill="#044F48"/>
</svg>
