<svg width="145" height="32" viewBox="0 0 145 32" fill="none" xmlns="http://www.w3.org/2000/svg">
<path d="M11.42 8.29C11.3253 8.06764 11.1682 7.8775 10.9676 7.74261C10.7671 7.60772 10.5317 7.53387 10.29 7.53H6.29003C6.18496 7.52404 6.08002 7.54367 5.98422 7.58722C5.88842 7.63076 5.80462 7.69692 5.74003 7.78C5.68657 7.87457 5.65848 7.98136 5.65848 8.09C5.65848 8.19864 5.68657 8.30543 5.74003 8.4L8.47003 13.13L4.17003 20.72C4.11358 20.8135 4.08374 20.9207 4.08374 21.03C4.08374 21.1393 4.11358 21.2465 4.17003 21.34C4.22368 21.429 4.30025 21.5019 4.39172 21.5511C4.48319 21.6004 4.58622 21.6242 4.69003 21.62H8.69003C8.92975 21.6125 9.16194 21.5345 9.35759 21.3958C9.55323 21.2571 9.70365 21.0637 9.79003 20.84L14.15 13.13L11.42 8.29ZM27.83 2.88C27.8817 2.78483 27.9087 2.67827 27.9087 2.57C27.9087 2.46173 27.8817 2.35517 27.83 2.26C27.7709 2.17535 27.6913 2.10709 27.5986 2.06162C27.5059 2.01614 27.4032 1.99494 27.3 2H23.22C22.9839 2.00667 22.7551 2.08345 22.5628 2.22058C22.3705 2.3577 22.2233 2.54896 22.14 2.77C22.14 2.77 13.44 18.2 13.14 18.7L18.88 29.23C18.9736 29.452 19.1288 29.6425 19.3273 29.779C19.5258 29.9154 19.7593 29.9921 20 30H24C24.1051 30.0088 24.2105 29.9894 24.3055 29.9437C24.4005 29.8979 24.4814 29.8276 24.54 29.74C24.5944 29.6457 24.6231 29.5388 24.6231 29.43C24.6231 29.3212 24.5944 29.2143 24.54 29.12L18.85 18.72L27.83 2.88Z" fill="#044F48"/>
<path d="M35.16 22.5H32.04L36.98 9.1H41.34L46.28 22.5H43.02L41.94 19.52H36.26L35.16 22.5ZM38 14.76L37.24 16.84H40.96L40.2 14.76L39.22 11.74H39.02L38 14.76ZM50.8072 22.5H47.8072V14.92H46.3472V12.44H47.8272C48.0072 10.32 49.4272 9.06 52.1072 9.06C52.4272 9.06 52.7272 9.06 53.0472 9.1V11.34H51.8072C51.0472 11.34 50.6872 11.58 50.6872 12.26V12.44H53.0472V14.92H50.8072V22.5ZM57.4812 22.5H54.5012V12.44H57.2812V14.06H57.4012C57.9012 13.04 58.8012 12.24 60.2212 12.24C62.3212 12.24 63.1012 13.8 63.1012 15.82V16.74H60.1212V16.2C60.1212 15.12 59.7812 14.78 58.8412 14.78C57.9212 14.78 57.4812 15.1 57.4812 16.2V22.5ZM67.3892 11.3H64.4492L64.4092 9.1H67.3892V11.3ZM67.4492 22.5H64.4492V12.44H67.4492V22.5ZM72.54 22.5H69.54V9.1H72.54V14.42H78.38V9.1H81.38V22.5H78.38V17.1H72.54V22.5ZM87.35 22.7C84.71 22.7 83.61 20.96 83.61 18.82V12.44H86.59V18.22C86.59 19.62 87.07 20.12 88.57 20.12C90.01 20.12 90.63 19.66 90.63 18.14V12.44H93.61V22.5H90.83V20.74H90.73C90.17 21.9 89.11 22.7 87.35 22.7ZM98.6273 22.5H95.8473V9.1H98.8273V13.84H98.9473C99.4073 13 100.487 12.24 102.007 12.24C104.767 12.24 106.227 14.3 106.227 17.48C106.227 20.64 104.767 22.7 102.027 22.7C100.467 22.7 99.2673 22.1 98.7273 21.02H98.6273V22.5ZM98.8273 18.28C98.8273 19.64 99.6273 20.14 101.047 20.14C102.767 20.14 103.247 19.3 103.247 17.48C103.247 15.64 102.787 14.8 101.047 14.8C99.6273 14.8 98.8273 15.3 98.8273 16.66V18.28Z" fill="#044F48"/>
</svg>
