<svg width="16" height="16" viewBox="0 0 13 12" fill="none" xmlns="http://www.w3.org/2000/svg">
  <path d="M10.1529 6.94054C10.0033 7.08556 9.9345 7.2953 9.96858 7.50098L10.4822 10.3437C10.5256 10.5846 10.4239 10.8284 10.2222 10.9677C10.0246 11.1121 9.76174 11.1294 9.54623 11.0139L6.98725 9.67921C6.89827 9.63183 6.79947 9.60641 6.69836 9.60352H6.54178C6.48747 9.61161 6.43432 9.62894 6.38578 9.65552L3.82623 10.9965C3.6997 11.0601 3.55641 11.0826 3.41601 11.0601C3.07396 10.9954 2.84574 10.6695 2.90178 10.3257L3.41601 7.48307C3.4501 7.27565 3.38134 7.06476 3.2317 6.91743L1.14534 4.89521C0.970851 4.72592 0.910184 4.4717 0.989917 4.24232C1.06734 4.01352 1.26494 3.84654 1.50356 3.80898L4.37512 3.39241C4.59352 3.36987 4.78534 3.23698 4.88356 3.04054L6.14889 0.446317C6.17894 0.388539 6.21765 0.335384 6.26445 0.290317L6.31645 0.249873C6.34361 0.219828 6.37481 0.194984 6.40947 0.174762L6.47245 0.151651L6.57067 0.111206H6.81392C7.03116 0.133739 7.22241 0.263739 7.32236 0.457873L8.60445 3.04054C8.6969 3.22947 8.87658 3.36063 9.08401 3.39241L11.9556 3.80898C12.1982 3.84365 12.401 4.01121 12.4813 4.24232C12.557 4.47401 12.4917 4.72823 12.3138 4.89521L10.1529 6.94054Z" fill="#D4D4D4"/>
</svg>
