<svg width="13" height="12" viewBox="0 0 13 12" fill="none" xmlns="http://www.w3.org/2000/svg">
<path d="M9.75293 7.0183C9.60329 7.16332 9.53453 7.37305 9.56862 7.57874L10.0823 10.4214C10.1256 10.6623 10.0239 10.9062 9.82227 11.0454C9.62467 11.1899 9.36178 11.2072 9.14627 11.0916L6.58729 9.75697C6.49831 9.70959 6.39951 9.68417 6.2984 9.68128H6.14182C6.08751 9.68937 6.03435 9.7067 5.98582 9.73328L3.42627 11.0743C3.29973 11.1379 3.15644 11.1604 3.01604 11.1379C2.674 11.0731 2.44578 10.7473 2.50182 10.4035L3.01604 7.56083C3.05013 7.35341 2.98138 7.14252 2.83173 6.99519L0.745376 4.97297C0.570887 4.80368 0.51022 4.54945 0.589954 4.32008C0.667376 4.09128 0.864976 3.9243 1.1036 3.88674L3.97515 3.47017C4.19355 3.44763 4.38538 3.31474 4.4836 3.1183L5.74893 0.524076C5.77898 0.466298 5.81769 0.413143 5.86449 0.368076L5.91649 0.327632C5.94364 0.297587 5.97484 0.272743 6.00951 0.25252L6.07249 0.229409L6.17071 0.188965H6.41395C6.6312 0.211498 6.82244 0.341498 6.9224 0.535632L8.20449 3.1183C8.29693 3.30723 8.47662 3.43839 8.68404 3.47017L11.5556 3.88674C11.7983 3.92141 12.0011 4.08897 12.0814 4.32008C12.1571 4.55177 12.0918 4.80599 11.9138 4.97297L9.75293 7.0183Z" fill="#D5D5D5"/>
</svg>
