<svg width="16" height="16" viewBox="0 0 13 12" fill="none" xmlns="http://www.w3.org/2000/svg">
  <path d="M10.1529 6.94054C10.0033 7.08556 9.93453 7.2953 9.96861 7.50098L10.4823 10.3437C10.5256 10.5846 10.4239 10.8284 10.2223 10.9677C10.0247 11.1121 9.76177 11.1294 9.54626 11.0139L6.98728 9.67921C6.8983 9.63183 6.7995 9.60641 6.69839 9.60352H6.54181C6.4875 9.61161 6.43435 9.62894 6.38581 9.65552L3.82626 10.9965C3.69973 11.0601 3.55644 11.0826 3.41604 11.0601C3.07399 10.9954 2.84577 10.6695 2.90181 10.3257L3.41604 7.48307C3.45013 7.27565 3.38137 7.06476 3.23173 6.91743L1.14537 4.89521C0.970881 4.72592 0.910214 4.4717 0.989948 4.24232C1.06737 4.01352 1.26497 3.84654 1.50359 3.80898L4.37515 3.39241C4.59355 3.36987 4.78537 3.23698 4.88359 3.04054L6.14893 0.446317C6.17897 0.388539 6.21768 0.335384 6.26448 0.290317L6.31648 0.249873C6.34364 0.219828 6.37484 0.194984 6.4095 0.174762L6.47248 0.151651L6.5707 0.111206H6.81395C7.03119 0.133739 7.22244 0.263739 7.32239 0.457873L8.60448 3.04054C8.69693 3.22947 8.87661 3.36063 9.08404 3.39241L11.9556 3.80898C12.1983 3.84365 12.4011 4.01121 12.4814 4.24232C12.5571 4.47401 12.4918 4.72823 12.3138 4.89521L10.1529 6.94054Z" fill="#FDC040"/>
</svg>
