<svg width="16px" height="16px" viewBox="0 0 0.48 0.48" fill="#073f38" xmlns="http://www.w3.org/2000/svg"><path d="M0.4 0.06v0.04m0 0v0.04m0 -0.04h0.04m-0.04 0h-0.04m-0.04 0.06a0.08 0.08 0 1 1 -0.16 0 0.08 0.08 0 0 1 0.16 0m-0.134 0.12h0.107c0.01 0 0.014 0 0.019 0.001 0.015 0.003 0.028 0.014 0.035 0.03 0.002 0.005 0.004 0.01 0.007 0.021 0.004 0.013 0.006 0.02 0.006 0.025 0.001 0.019 -0.009 0.036 -0.024 0.041 -0.004 0.001 -0.01 0.001 -0.022 0.001H0.166c-0.012 0 -0.017 0 -0.022 -0.001 -0.015 -0.005 -0.025 -0.022 -0.024 -0.041 0 -0.005 0.002 -0.012 0.006 -0.025 0.003 -0.011 0.005 -0.017 0.007 -0.021 0.007 -0.016 0.02 -0.027 0.035 -0.03 0.004 -0.001 0.009 -0.001 0.019 -0.001" stroke="#073f38" stroke-linecap="round" stroke-linejoin="round" stroke-width="0.02"/></svg>