<svg fill="#073f38" height="16px" width="16px" version="1.1" id="Icons" xmlns="http://www.w3.org/2000/svg" xmlns:xlink="http://www.w3.org/1999/xlink" viewBox="0 0 0.64 0.64" xml:space="preserve"><g><path d="M0.47 0.62c-0.006 0 -0.01 -0.002 -0.014 -0.006l-0.114 -0.118c-0.03 -0.03 -0.03 -0.08 0 -0.112 0.014 -0.016 0.034 -0.024 0.054 -0.024s0.04 0.008 0.054 0.024l0.018 0.02 0.018 -0.02C0.5 0.368 0.52 0.36 0.54 0.36s0.04 0.008 0.054 0.024c0.03 0.03 0.03 0.08 0 0.112L0.48 0.614c0 0.004 -0.004 0.006 -0.01 0.006"/></g><path d="M0.314 0.522c-0.044 -0.046 -0.044 -0.12 0 -0.166 0.022 -0.024 0.052 -0.036 0.084 -0.036 0.006 0 0.012 0 0.018 0.002L0.4 0.178c-0.002 -0.01 -0.01 -0.018 -0.02 -0.018h-0.06V0.14c0 -0.056 -0.044 -0.1 -0.1 -0.1S0.12 0.084 0.12 0.14v0.02H0.06c-0.01 0 -0.018 0.008 -0.02 0.018l-0.04 0.4c0 0.006 0.002 0.012 0.006 0.016s0.008 0.006 0.014 0.006h0.368zM0.28 0.16H0.16V0.14c0 -0.034 0.026 -0.06 0.06 -0.06s0.06 0.026 0.06 0.06z"/></svg>